<?xml version="1.0" encoding="UTF-8"?>
<!DOCTYPE svg PUBLIC "-//W3C//DTD SVG 1.1//EN" "http://www.w3.org/Graphics/SVG/1.1/DTD/svg11.dtd">
<svg xmlns="http://www.w3.org/2000/svg" version="1.1" width="300px" height="300px" style="shape-rendering:geometricPrecision; text-rendering:geometricPrecision; image-rendering:optimizeQuality; fill-rule:evenodd; clip-rule:evenodd" xmlns:xlink="http://www.w3.org/1999/xlink">
<g><path style="opacity:0.068" fill="#000000" d="M 45.5,15.5 C 113.685,15.4324 183.019,15.599 253.5,16C 263.93,15.633 272.43,19.4663 279,27.5C 281.047,30.9638 282.713,34.6305 284,38.5C 284.168,110.737 284.668,182.904 285.5,255C 284.462,271.359 276.128,281.692 260.5,286C 186.5,286.667 112.5,286.667 38.5,286C 25.7812,283.615 17.9479,276.115 15,263.5C 14.3333,188.5 14.3333,113.5 15,38.5C 17.583,28.9152 23.4163,22.0819 32.5,18C 36.9649,17.1259 41.2983,16.2926 45.5,15.5 Z"/></g>
<g><path style="opacity:0.998" fill="#42b573" d="M 149.5,17.5 C 149.5,18.8333 149.5,20.1667 149.5,21.5C 149.5,36.1667 149.5,50.8333 149.5,65.5C 149.5,67.8333 149.5,70.1667 149.5,72.5C 149.5,73.1667 149.5,73.8333 149.5,74.5C 148.833,74.5 148.5,74.1667 148.5,73.5C 148.5,56.1667 148.5,38.8333 148.5,21.5C 111.165,21.3333 73.8318,21.5 36.5,22C 27.9815,25.3531 21.9815,31.1865 18.5,39.5C 21.3524,27.8148 28.6858,20.6482 40.5,18C 76.8318,17.5 113.165,17.3333 149.5,17.5 Z"/></g>
<g><path style="opacity:0.998" fill="#5a72a4" d="M 149.5,17.5 C 166.833,17.5 184.167,17.5 201.5,17.5C 201.5,18.8333 201.5,20.1667 201.5,21.5C 199.867,22.9454 198.034,24.2787 196,25.5C 195.945,23.1148 194.778,21.7814 192.5,21.5C 190.964,22.2485 189.631,23.2485 188.5,24.5C 185.5,20.5 182.5,20.5 179.5,24.5C 176.669,20.5825 173.836,20.5825 171,24.5C 168.164,20.5825 165.331,20.5825 162.5,24.5C 159.5,20.5 156.5,20.5 153.5,24.5C 152.358,23.1738 151.024,22.1738 149.5,21.5C 149.5,20.1667 149.5,18.8333 149.5,17.5 Z"/></g>
<g><path style="opacity:0.998" fill="#d65a78" d="M 201.5,17.5 C 220.503,17.3334 239.503,17.5001 258.5,18C 263.723,18.6114 268.057,20.7781 271.5,24.5C 248.339,25.4975 225.006,25.8309 201.5,25.5C 201.5,24.1667 201.5,22.8333 201.5,21.5C 201.5,20.1667 201.5,18.8333 201.5,17.5 Z"/></g>
<g><path style="opacity:0.996" fill="#04923c" d="M 148.5,73.5 C 126.844,60.1837 105.178,46.8504 83.5,33.5C 61.4822,47.1736 39.4822,60.8403 17.5,74.5C 17.1887,62.7527 17.522,51.0861 18.5,39.5C 21.9815,31.1865 27.9815,25.3531 36.5,22C 73.8318,21.5 111.165,21.3333 148.5,21.5C 148.5,38.8333 148.5,56.1667 148.5,73.5 Z"/></g>
<g><path style="opacity:0.996" fill="#ba0a34" d="M 202.5,21.5 C 221.836,21.3334 241.17,21.5 260.5,22C 262.608,22.3599 264.608,23.0266 266.5,24C 245.169,24.5 223.836,24.6666 202.5,24.5C 202.5,23.5 202.5,22.5 202.5,21.5 Z"/></g>
<g><path style="opacity:0.996" fill="#091f62" d="M 149.5,21.5 C 151.024,22.1738 152.358,23.1738 153.5,24.5C 156.5,20.5 159.5,20.5 162.5,24.5C 165.331,20.5825 168.164,20.5825 171,24.5C 173.836,20.5825 176.669,20.5825 179.5,24.5C 182.5,20.5 185.5,20.5 188.5,24.5C 189.631,23.2485 190.964,22.2485 192.5,21.5C 194.778,21.7814 195.945,23.1148 196,25.5C 198.034,24.2787 199.867,22.9454 201.5,21.5C 201.5,22.8333 201.5,24.1667 201.5,25.5C 201.5,27.5 201.5,29.5 201.5,31.5C 201.5,31.8333 201.5,32.1667 201.5,32.5C 197.599,29.3614 195.266,30.3614 194.5,35.5C 192.833,34.6667 191.167,33.8333 189.5,33C 190.604,31.8687 190.271,31.0354 188.5,30.5C 186.729,31.0354 186.396,31.8687 187.5,33C 186.874,33.7504 186.374,34.5838 186,35.5C 180.02,35.0013 179.52,33.0013 184.5,29.5C 184.723,24.2666 183.89,24.2666 182,29.5C 180.333,25.5 178.667,25.5 177,29.5C 176.517,28.552 176.351,27.552 176.5,26.5C 175.5,26.5 174.5,26.5 173.5,26.5C 173.281,27.675 173.614,28.675 174.5,29.5C 179.183,32.0137 179.183,33.347 174.5,33.5C 174.167,35.5 173.833,37.5 173.5,39.5C 176.899,39.5495 178.232,41.0495 177.5,44C 179.986,44.7051 179.986,45.5384 177.5,46.5C 176.167,43.8333 174.833,43.8333 173.5,46.5C 173.631,47.2389 173.464,47.9056 173,48.5C 171.667,43.1667 170.333,43.1667 169,48.5C 168.768,47.2625 168.268,46.2625 167.5,45.5C 167.103,44.475 166.437,44.3083 165.5,45C 164.402,45.7697 164.402,46.603 165.5,47.5C 162.052,48.02 160.386,50.02 160.5,53.5C 162.124,53.6399 163.29,52.9733 164,51.5C 164.374,52.4162 164.874,53.2496 165.5,54C 164.949,55.3985 164.616,56.7318 164.5,58C 165.793,58.49 167.127,58.6567 168.5,58.5C 168.337,56.1432 168.503,53.8098 169,51.5C 170.333,54.1667 171.667,54.1667 173,51.5C 173.497,53.8098 173.663,56.1432 173.5,58.5C 175.124,58.6399 176.29,57.9733 177,56.5C 177.605,59.3064 178.938,61.6397 181,63.5C 181.72,61.8876 181.554,60.3876 180.5,59C 181.362,56.2656 182.195,56.0989 183,58.5C 186.266,56.3703 185.933,54.7036 182,53.5C 179.952,50.8573 180.119,48.524 182.5,46.5C 182.948,48.4646 183.948,48.7979 185.5,47.5C 186.246,46.2638 186.579,44.9305 186.5,43.5C 187.791,43.7373 188.791,43.404 189.5,42.5C 191.038,40.5786 192.871,38.9119 195,37.5C 195.374,38.4162 195.874,39.2496 196.5,40C 195.446,41.3876 195.28,42.8876 196,44.5C 198.531,43.0773 200.365,41.0773 201.5,38.5C 201.5,40.8333 201.5,43.1667 201.5,45.5C 201.5,47.5 201.5,49.5 201.5,51.5C 201.5,53.8333 201.5,56.1667 201.5,58.5C 201.5,60.8333 201.5,63.1667 201.5,65.5C 184.167,65.5 166.833,65.5 149.5,65.5C 149.5,50.8333 149.5,36.1667 149.5,21.5 Z"/></g>
<g><path style="opacity:0.992" fill="#fefdfd" d="M 271.5,24.5 C 274.219,26.2193 276.219,28.5526 277.5,31.5C 252.167,31.5 226.833,31.5 201.5,31.5C 201.5,29.5 201.5,27.5 201.5,25.5C 225.006,25.8309 248.339,25.4975 271.5,24.5 Z"/></g>
<g><path style="opacity:0.996" fill="#9fa9bf" d="M 157.5,25.5 C 159.104,26.287 159.771,27.6203 159.5,29.5C 158.5,29.5 157.5,29.5 156.5,29.5C 156.433,28.0413 156.766,26.7079 157.5,25.5 Z"/></g>
<g><path style="opacity:0.996" fill="#abb3c7" d="M 191.5,26.5 C 192.5,26.5 193.5,26.5 194.5,26.5C 194.5,27.5 194.5,28.5 194.5,29.5C 193.5,29.5 192.5,29.5 191.5,29.5C 191.5,28.5 191.5,27.5 191.5,26.5 Z"/></g>
<g><path style="opacity:0.996" fill="#3d487d" d="M 165.5,26.5 C 165.5,27.5 165.5,28.5 165.5,29.5C 166.5,29.5 167.5,29.5 168.5,29.5C 169.404,28.791 169.737,27.791 169.5,26.5C 170.5,26.5 171.5,26.5 172.5,26.5C 171.167,29.1667 171.167,31.8333 172.5,34.5C 168.019,33.9634 166.686,35.6301 168.5,39.5C 165.833,40.8333 163.167,42.1667 160.5,43.5C 160.33,42.1779 160.663,41.0113 161.5,40C 160.809,38.9326 160.309,37.7659 160,36.5C 159.517,37.448 159.351,38.448 159.5,39.5C 157.876,39.6399 156.71,38.9733 156,37.5C 155.626,38.4162 155.126,39.2496 154.5,40C 156.239,43.6566 155.573,44.6566 152.5,43C 151.02,41.7009 150.354,40.0342 150.5,38C 150.307,35.9919 150.974,34.4919 152.5,33.5C 153.167,33.5 153.833,33.5 154.5,33.5C 156.142,35.0808 158.142,35.7475 160.5,35.5C 159.756,32.0504 161.09,30.3838 164.5,30.5C 164.232,28.901 164.566,27.5676 165.5,26.5 Z"/></g>
<g><path style="opacity:0.996" fill="#a3acc1" d="M 165.5,26.5 C 166.5,26.5 167.5,26.5 168.5,26.5C 168.5,27.5 168.5,28.5 168.5,29.5C 168.5,28.5 168.5,27.5 168.5,26.5C 167.5,26.5 166.5,26.5 165.5,26.5 Z"/></g>
<g><path style="opacity:0.996" fill="#c6ccda" d="M 154.5,33.5 C 153.833,33.5 153.167,33.5 152.5,33.5C 151.773,30.524 152.773,30.024 155.5,32C 154.944,32.3826 154.611,32.8826 154.5,33.5 Z"/></g>
<g><path style="opacity:0.996" fill="#be2343" d="M 201.5,31.5 C 226.833,31.5 252.167,31.5 277.5,31.5C 279.065,33.5093 280.065,35.8427 280.5,38.5C 254.167,38.5 227.833,38.5 201.5,38.5C 201.5,36.5 201.5,34.5 201.5,32.5C 201.5,32.1667 201.5,31.8333 201.5,31.5 Z"/></g>
<g><path style="opacity:0.996" fill="#f4c005" d="M 148.5,73.5 C 148.5,74.1667 148.833,74.5 149.5,74.5C 149.5,75.8333 149.5,77.1667 149.5,78.5C 148.89,79.391 148.557,80.391 148.5,81.5C 127.03,95.4059 105.364,109.073 83.5,122.5C 61.4651,108.78 39.4651,95.1132 17.5,81.5C 17.5,79.1667 17.5,76.8333 17.5,74.5C 39.4822,60.8403 61.4822,47.1736 83.5,33.5C 105.178,46.8504 126.844,60.1837 148.5,73.5 Z"/></g>
<g><path style="opacity:0.996" fill="#fbf6f7" d="M 201.5,38.5 C 227.833,38.5 254.167,38.5 280.5,38.5C 281.219,40.7638 281.552,43.0971 281.5,45.5C 254.833,45.5 228.167,45.5 201.5,45.5C 201.5,43.1667 201.5,40.8333 201.5,38.5 Z"/></g>
<g><path style="opacity:0.996" fill="#c5cbd8" d="M 169.5,40.5 C 170.5,40.5 171.5,40.5 172.5,40.5C 172.5,41.5 172.5,42.5 172.5,43.5C 171.5,43.5 170.5,43.5 169.5,43.5C 169.5,42.5 169.5,41.5 169.5,40.5 Z"/></g>
<g><path style="opacity:0.996" fill="#343f78" d="M 201.5,32.5 C 201.5,34.5 201.5,36.5 201.5,38.5C 200.365,41.0773 198.531,43.0773 196,44.5C 195.28,42.8876 195.446,41.3876 196.5,40C 195.874,39.2496 195.374,38.4162 195,37.5C 192.871,38.9119 191.038,40.5786 189.5,42.5C 189.53,41.5028 189.03,40.8361 188,40.5C 186.265,41.6819 185.265,43.3485 185,45.5C 183.841,44.434 183.008,44.7673 182.5,46.5C 180.119,48.524 179.952,50.8573 182,53.5C 185.933,54.7036 186.266,56.3703 183,58.5C 182.195,56.0989 181.362,56.2656 180.5,59C 181.554,60.3876 181.72,61.8876 181,63.5C 178.938,61.6397 177.605,59.3064 177,56.5C 176.29,57.9733 175.124,58.6399 173.5,58.5C 173.663,56.1432 173.497,53.8098 173,51.5C 171.667,54.1667 170.333,54.1667 169,51.5C 168.503,53.8098 168.337,56.1432 168.5,58.5C 167.127,58.6567 165.793,58.49 164.5,58C 164.616,56.7318 164.949,55.3985 165.5,54C 164.874,53.2496 164.374,52.4162 164,51.5C 163.29,52.9733 162.124,53.6399 160.5,53.5C 160.386,50.02 162.052,48.02 165.5,47.5C 165.56,48.0431 165.893,48.3764 166.5,48.5C 167.386,47.675 167.719,46.675 167.5,45.5C 168.268,46.2625 168.768,47.2625 169,48.5C 170.333,43.1667 171.667,43.1667 173,48.5C 173.464,47.9056 173.631,47.2389 173.5,46.5C 174.151,47.0906 174.818,47.7573 175.5,48.5C 176.182,47.7573 176.849,47.0906 177.5,46.5C 179.986,45.5384 179.986,44.7051 177.5,44C 178.232,41.0495 176.899,39.5495 173.5,39.5C 173.833,37.5 174.167,35.5 174.5,33.5C 179.183,33.347 179.183,32.0137 174.5,29.5C 173.614,28.675 173.281,27.675 173.5,26.5C 174.5,26.5 175.5,26.5 176.5,26.5C 176.351,27.552 176.517,28.552 177,29.5C 178.667,25.5 180.333,25.5 182,29.5C 183.89,24.2666 184.723,24.2666 184.5,29.5C 179.52,33.0013 180.02,35.0013 186,35.5C 186.374,34.5838 186.874,33.7504 187.5,33C 186.396,31.8687 186.729,31.0354 188.5,30.5C 190.271,31.0354 190.604,31.8687 189.5,33C 191.167,33.8333 192.833,34.6667 194.5,35.5C 195.266,30.3614 197.599,29.3614 201.5,32.5 Z"/></g>
<g><path style="opacity:0.996" fill="#a4aec4" d="M 177.5,46.5 C 176.849,47.0906 176.182,47.7573 175.5,48.5C 174.818,47.7573 174.151,47.0906 173.5,46.5C 174.833,43.8333 176.167,43.8333 177.5,46.5 Z"/></g>
<g><path style="opacity:0.996" fill="#adb6ca" d="M 192.5,44.5 C 194.104,45.287 194.771,46.6203 194.5,48.5C 193.5,48.5 192.5,48.5 191.5,48.5C 191.433,47.0413 191.766,45.7079 192.5,44.5 Z"/></g>
<g><path style="opacity:0.996" fill="#ba0b35" d="M 201.5,45.5 C 228.167,45.5 254.833,45.5 281.5,45.5C 281.5,47.5 281.5,49.5 281.5,51.5C 254.833,51.5 228.167,51.5 201.5,51.5C 201.5,49.5 201.5,47.5 201.5,45.5 Z"/></g>
<g><path style="opacity:0.996" fill="#9ba6bc" d="M 157.5,44.5 C 159.104,45.287 159.771,46.6203 159.5,48.5C 158.5,48.5 157.5,48.5 156.5,48.5C 156.433,47.0413 156.766,45.7079 157.5,44.5 Z"/></g>
<g><path style="opacity:0.996" fill="#afb8cb" d="M 167.5,45.5 C 167.719,46.675 167.386,47.675 166.5,48.5C 165.893,48.3764 165.56,48.0431 165.5,47.5C 164.402,46.603 164.402,45.7697 165.5,45C 166.437,44.3083 167.103,44.475 167.5,45.5 Z"/></g>
<g><path style="opacity:0.996" fill="#868eae" d="M 189.5,42.5 C 188.791,43.404 187.791,43.7373 186.5,43.5C 186.579,44.9305 186.246,46.2638 185.5,47.5C 183.948,48.7979 182.948,48.4646 182.5,46.5C 183.008,44.7673 183.841,44.434 185,45.5C 185.265,43.3485 186.265,41.6819 188,40.5C 189.03,40.8361 189.53,41.5028 189.5,42.5 Z"/></g>
<g><path style="opacity:0.996" fill="#24116b" d="M 112.5,72.5 C 112.664,75.1873 112.497,77.854 112,80.5C 97.262,68.6851 79.0954,63.3518 57.5,64.5C 67.74,47.6251 81.74,43.7917 99.5,53C 106.456,57.7441 110.79,64.2441 112.5,72.5 Z"/></g>
<g><path style="opacity:0.996" fill="#afb8cc" d="M 152.5,49.5 C 156.029,50.0297 156.362,51.3631 153.5,53.5C 151.824,52.2724 151.491,50.9391 152.5,49.5 Z"/></g>
<g><path style="opacity:0.996" fill="#3c467c" d="M 187.5,49.5 C 188.58,51.589 190.746,53.2557 194,54.5C 195,52.8333 196,51.1667 197,49.5C 198.044,50.6226 198.71,51.9559 199,53.5C 199.333,52.8333 199.667,52.1667 200,51.5C 201.342,56.5016 200.009,60.5016 196,63.5C 195.193,59.551 194.693,59.551 194.5,63.5C 191.833,63.5 189.167,63.5 186.5,63.5C 186.5,62.1667 186.5,60.8333 186.5,59.5C 188.451,59.2267 189.951,59.8934 191,61.5C 192.44,59.9544 194.273,59.121 196.5,59C 195.953,58.0754 195.287,57.2421 194.5,56.5C 193.28,57.7111 192.113,57.7111 191,56.5C 189.647,54.5664 188.147,52.7331 186.5,51C 187.056,50.6174 187.389,50.1174 187.5,49.5 Z"/></g>
<g><path style="opacity:0.996" fill="#faf0f2" d="M 201.5,51.5 C 228.167,51.5 254.833,51.5 281.5,51.5C 281.5,53.8333 281.5,56.1667 281.5,58.5C 254.833,58.5 228.167,58.5 201.5,58.5C 201.5,56.1667 201.5,53.8333 201.5,51.5 Z"/></g>
<g><path style="opacity:0.996" fill="#abb3c6" d="M 170.5,58.5 C 172.104,59.287 172.771,60.6203 172.5,62.5C 171.5,62.5 170.5,62.5 169.5,62.5C 169.433,61.0413 169.766,59.7079 170.5,58.5 Z"/></g>
<g><path style="opacity:0.996" fill="#be2241" d="M 201.5,58.5 C 228.167,58.5 254.833,58.5 281.5,58.5C 281.5,60.8333 281.5,63.1667 281.5,65.5C 254.833,65.5 228.167,65.5 201.5,65.5C 201.5,63.1667 201.5,60.8333 201.5,58.5 Z"/></g>
<g><path style="opacity:0.996" fill="#a2acc1" d="M 161.5,58.5 C 163.104,59.287 163.771,60.6203 163.5,62.5C 162.5,62.5 161.5,62.5 160.5,62.5C 160.433,61.0413 160.766,59.7079 161.5,58.5 Z"/></g>
<g><path style="opacity:0.996" fill="#fbf7f8" d="M 149.5,65.5 C 166.833,65.5 184.167,65.5 201.5,65.5C 228.167,65.5 254.833,65.5 281.5,65.5C 281.5,67.8333 281.5,70.1667 281.5,72.5C 237.5,72.5 193.5,72.5 149.5,72.5C 149.5,70.1667 149.5,67.8333 149.5,65.5 Z"/></g>
<g><path style="opacity:0.996" fill="#bccfca" d="M 57.5,64.5 C 79.0954,63.3518 97.262,68.6851 112,80.5C 112.497,77.854 112.664,75.1873 112.5,72.5C 113.861,76.9298 113.527,81.2632 111.5,85.5C 95.182,72.4163 76.5153,67.083 55.5,69.5C 55.4021,67.4471 56.0687,65.7804 57.5,64.5 Z"/></g>
<g><path style="opacity:0.996" fill="#2d1970" d="M 55.5,69.5 C 76.5153,67.083 95.182,72.4163 111.5,85.5C 108.181,97.1841 100.515,104.351 88.5,107C 71.3629,108.35 60.1962,100.85 55,84.5C 54.1837,79.3158 54.3503,74.3158 55.5,69.5 Z"/></g>
<g><path style="opacity:0.996" fill="#ba0c36" d="M 149.5,72.5 C 193.5,72.5 237.5,72.5 281.5,72.5C 281.5,74.5 281.5,76.5 281.5,78.5C 237.5,78.5 193.5,78.5 149.5,78.5C 149.5,77.1667 149.5,75.8333 149.5,74.5C 149.5,73.8333 149.5,73.1667 149.5,72.5 Z"/></g>
<g><path style="opacity:0.996" fill="#faf1f2" d="M 149.5,78.5 C 193.5,78.5 237.5,78.5 281.5,78.5C 281.5,80.8333 281.5,83.1667 281.5,85.5C 237.5,85.5 193.5,85.5 149.5,85.5C 149.167,85.5 148.833,85.5 148.5,85.5C 148.5,84.1667 148.5,82.8333 148.5,81.5C 148.557,80.391 148.89,79.391 149.5,78.5 Z"/></g>
<g><path style="opacity:0.996" fill="#05923c" d="M 17.5,81.5 C 39.4651,95.1132 61.4651,108.78 83.5,122.5C 105.364,109.073 127.03,95.4059 148.5,81.5C 148.5,82.8333 148.5,84.1667 148.5,85.5C 148.175,92.6866 148.509,99.6866 149.5,106.5C 149.828,117.014 149.494,127.347 148.5,137.5C 132.5,137.5 116.5,137.5 100.5,137.5C 98.5,137.5 96.5,137.5 94.5,137.5C 87.5,137.5 80.5,137.5 73.5,137.5C 71.5,137.5 69.5,137.5 67.5,137.5C 67.1667,137.5 66.8333,137.5 66.5,137.5C 50.1667,137.5 33.8333,137.5 17.5,137.5C 17.5,118.833 17.5,100.167 17.5,81.5 Z"/></g>
<g><path style="opacity:0.996" fill="#be213f" d="M 149.5,85.5 C 193.5,85.5 237.5,85.5 281.5,85.5C 281.5,87.8333 281.5,90.1667 281.5,92.5C 237.5,92.5 193.5,92.5 149.5,92.5C 149.5,90.1667 149.5,87.8333 149.5,85.5 Z"/></g>
<g><path style="opacity:0.996" fill="#fdfbfc" d="M 149.5,92.5 C 193.5,92.5 237.5,92.5 281.5,92.5C 281.5,94.5 281.5,96.5 281.5,98.5C 237.5,98.5 193.5,98.5 149.5,98.5C 149.5,96.5 149.5,94.5 149.5,92.5 Z"/></g>
<g><path style="opacity:0.996" fill="#e5d1d1" d="M 148.5,85.5 C 148.833,85.5 149.167,85.5 149.5,85.5C 149.5,87.8333 149.5,90.1667 149.5,92.5C 149.5,94.5 149.5,96.5 149.5,98.5C 193.5,98.5 237.5,98.5 281.5,98.5C 281.5,98.8333 281.5,99.1667 281.5,99.5C 237.5,99.5 193.5,99.5 149.5,99.5C 149.5,101.833 149.5,104.167 149.5,106.5C 148.509,99.6866 148.175,92.6866 148.5,85.5 Z"/></g>
<g><path style="opacity:0.996" fill="#b9173a" d="M 281.5,99.5 C 281.5,101.833 281.5,104.167 281.5,106.5C 255.167,106.5 228.833,106.5 202.5,106.5C 202.5,113.167 202.5,119.833 202.5,126.5C 203.791,126.263 204.791,126.596 205.5,127.5C 204.167,127.5 202.833,127.5 201.5,127.5C 201.5,120.5 201.5,113.5 201.5,106.5C 184.167,106.5 166.833,106.5 149.5,106.5C 149.5,104.167 149.5,101.833 149.5,99.5C 193.5,99.5 237.5,99.5 281.5,99.5 Z"/></g>
<g><path style="opacity:0.996" fill="#db201b" d="M 281.5,106.5 C 281.5,134.833 281.5,163.167 281.5,191.5C 274.167,191.5 266.833,191.5 259.5,191.5C 240.674,190.503 221.674,190.17 202.5,190.5C 202.5,183.833 202.5,177.167 202.5,170.5C 221.687,166.128 227.52,154.795 220,136.5C 216.039,132.028 211.206,129.028 205.5,127.5C 204.791,126.596 203.791,126.263 202.5,126.5C 202.5,119.833 202.5,113.167 202.5,106.5C 228.833,106.5 255.167,106.5 281.5,106.5 Z"/></g>
<g><path style="opacity:0.996" fill="#035f30" d="M 149.5,106.5 C 166.833,106.5 184.167,106.5 201.5,106.5C 201.5,113.5 201.5,120.5 201.5,127.5C 188.148,128.35 180.815,135.517 179.5,149C 181.45,161.785 188.784,168.951 201.5,170.5C 201.5,177.5 201.5,184.5 201.5,191.5C 191.167,191.5 180.833,191.5 170.5,191.5C 170.167,191.5 169.833,191.5 169.5,191.5C 162.833,191.5 156.167,191.5 149.5,191.5C 149.5,189.167 149.5,186.833 149.5,184.5C 149.5,180.167 149.5,175.833 149.5,171.5C 149.5,168.167 149.5,164.833 149.5,161.5C 149.795,159.265 149.461,157.265 148.5,155.5C 148.5,149.5 148.5,143.5 148.5,137.5C 149.494,127.347 149.828,117.014 149.5,106.5 Z"/></g>
<g><path style="opacity:0.996" fill="#0e1058" d="M 17.5,137.5 C 33.8333,137.5 50.1667,137.5 66.5,137.5C 66.8295,153.009 66.4962,168.342 65.5,183.5C 49.5,173.833 33.5,164.167 17.5,154.5C 17.5,148.833 17.5,143.167 17.5,137.5 Z"/></g>
<g><path style="opacity:0.996" fill="#545687" d="M 66.5,137.5 C 66.8333,137.5 67.1667,137.5 67.5,137.5C 67.8327,153.181 67.4994,168.848 66.5,184.5C 65.8933,184.376 65.56,184.043 65.5,183.5C 66.4962,168.342 66.8295,153.009 66.5,137.5 Z"/></g>
<g><path style="opacity:0.996" fill="#fbf9fa" d="M 67.5,137.5 C 69.5,137.5 71.5,137.5 73.5,137.5C 73.5,157.5 73.5,177.5 73.5,197.5C 54.8333,197.5 36.1667,197.5 17.5,197.5C 17.5,195.5 17.5,193.5 17.5,191.5C 21.8461,191.666 26.1794,191.499 30.5,191C 26.2556,188.572 21.9222,186.406 17.5,184.5C 17.5,182.5 17.5,180.5 17.5,178.5C 25.2591,182.409 32.9257,186.576 40.5,191C 44.8333,191.667 49.1667,191.667 53.5,191C 41.6079,183.89 29.6079,177.057 17.5,170.5C 17.5,165.167 17.5,159.833 17.5,154.5C 33.5,164.167 49.5,173.833 65.5,183.5C 65.56,184.043 65.8933,184.376 66.5,184.5C 67.4994,168.848 67.8327,153.181 67.5,137.5 Z"/></g>
<g><path style="opacity:0.996" fill="#fe0703" d="M 73.5,137.5 C 80.5,137.5 87.5,137.5 94.5,137.5C 94.5,157.5 94.5,177.5 94.5,197.5C 112.5,197.5 130.5,197.5 148.5,197.5C 148.5,205.167 148.5,212.833 148.5,220.5C 130.5,220.5 112.5,220.5 94.5,220.5C 93.503,239.326 93.1697,258.326 93.5,277.5C 87.1667,277.5 80.8333,277.5 74.5,277.5C 74.8303,258.326 74.497,239.326 73.5,220.5C 54.8333,220.5 36.1667,220.5 17.5,220.5C 17.5,212.833 17.5,205.167 17.5,197.5C 36.1667,197.5 54.8333,197.5 73.5,197.5C 73.5,177.5 73.5,157.5 73.5,137.5 Z"/></g>
<g><path style="opacity:0.996" fill="#fbf8f8" d="M 94.5,137.5 C 96.5,137.5 98.5,137.5 100.5,137.5C 100.333,153.17 100.5,168.837 101,184.5C 116.719,174.608 132.552,164.941 148.5,155.5C 149.461,157.265 149.795,159.265 149.5,161.5C 133.385,171.108 117.385,180.941 101.5,191C 106.833,191.667 112.167,191.667 117.5,191C 128.056,184.227 138.722,177.727 149.5,171.5C 149.5,175.833 149.5,180.167 149.5,184.5C 148.508,184.328 147.842,184.662 147.5,185.5C 144.797,187.181 142.131,188.847 139.5,190.5C 141.386,191.549 144.72,191.882 149.5,191.5C 149.795,193.735 149.461,195.735 148.5,197.5C 130.5,197.5 112.5,197.5 94.5,197.5C 94.5,177.5 94.5,157.5 94.5,137.5 Z"/></g>
<g><path style="opacity:0.996" fill="#131259" d="M 100.5,137.5 C 116.5,137.5 132.5,137.5 148.5,137.5C 148.5,143.5 148.5,149.5 148.5,155.5C 132.552,164.941 116.719,174.608 101,184.5C 100.5,168.837 100.333,153.17 100.5,137.5 Z"/></g>
<g><path style="opacity:0.996" fill="#cfbb0e" d="M 201.5,127.5 C 202.833,127.5 204.167,127.5 205.5,127.5C 211.206,129.028 216.039,132.028 220,136.5C 227.52,154.795 221.687,166.128 202.5,170.5C 202.167,170.5 201.833,170.5 201.5,170.5C 188.784,168.951 181.45,161.785 179.5,149C 180.815,135.517 188.148,128.35 201.5,127.5 Z"/></g>
<g><path style="opacity:0.996" fill="#d23321" d="M 199.5,139.5 C 197.833,139.5 196.167,139.5 194.5,139.5C 194.26,145.227 194.593,150.894 195.5,156.5C 193.24,155.114 192.406,155.781 193,158.5C 194.579,159.8 195.745,159.466 196.5,157.5C 199.833,158.833 203.167,158.833 206.5,157.5C 207.287,159.104 208.62,159.771 210.5,159.5C 210.5,158.5 210.5,157.5 210.5,156.5C 209.5,156.5 208.5,156.5 207.5,156.5C 208.939,154.412 209.606,152.079 209.5,149.5C 210.833,149.5 212.167,149.5 213.5,149.5C 213.5,150.833 213.5,152.167 213.5,153.5C 213.284,158.781 210.617,161.947 205.5,163C 208.572,163.456 211.572,163.456 214.5,163C 211.126,166.187 207.126,168.02 202.5,168.5C 202.843,166.517 202.176,165.183 200.5,164.5C 199.167,164.167 197.833,163.833 196.5,163.5C 193.833,161.5 191.5,159.167 189.5,156.5C 189.5,155.833 189.5,155.167 189.5,154.5C 189.5,152.833 189.5,151.167 189.5,149.5C 190.833,149.5 192.167,149.5 193.5,149.5C 193.5,148.167 193.5,146.833 193.5,145.5C 192.167,145.5 190.833,145.5 189.5,145.5C 189.5,143.5 189.5,141.5 189.5,139.5C 190.833,139.5 192.167,139.5 193.5,139.5C 193.714,137.856 193.38,136.356 192.5,135C 195.167,134.333 197.833,134.333 200.5,135C 199.62,136.356 199.286,137.856 199.5,139.5 Z"/></g>
<g><path style="opacity:0.996" fill="#b79700" d="M 207.5,156.5 C 208.5,156.5 209.5,156.5 210.5,156.5C 210.5,157.5 210.5,158.5 210.5,159.5C 208.62,159.771 207.287,159.104 206.5,157.5C 206.5,156.833 206.833,156.5 207.5,156.5 Z"/></g>
<g><path style="opacity:0.996" fill="#b29700" d="M 195.5,156.5 C 196.167,156.5 196.5,156.833 196.5,157.5C 195.745,159.466 194.579,159.8 193,158.5C 192.406,155.781 193.24,155.114 195.5,156.5 Z"/></g>
<g><path style="opacity:0.996" fill="#d12f19" d="M 217.5,151.5 C 218.5,151.5 219.5,151.5 220.5,151.5C 220.5,152.833 220.5,154.167 220.5,155.5C 218.319,155.716 216.653,154.883 215.5,153C 216.416,152.722 217.082,152.222 217.5,151.5 Z"/></g>
<g><path style="opacity:0.996" fill="#165d2d" d="M 188.5,152.5 C 188.328,153.492 188.662,154.158 189.5,154.5C 189.5,155.167 189.5,155.833 189.5,156.5C 187.738,156.357 186.071,156.691 184.5,157.5C 183.682,155.892 183.015,154.225 182.5,152.5C 184.326,152.08 186.326,152.08 188.5,152.5 Z"/></g>
<g><path style="opacity:0.996" fill="#ebe6ea" d="M 199.5,139.5 C 200.833,139.5 202.167,139.5 203.5,139.5C 205.5,139.5 207.5,139.5 209.5,139.5C 209.5,141.5 209.5,143.5 209.5,145.5C 209.5,146.833 209.5,148.167 209.5,149.5C 209.606,152.079 208.939,154.412 207.5,156.5C 206.833,156.5 206.5,156.833 206.5,157.5C 203.167,158.833 199.833,158.833 196.5,157.5C 196.5,156.833 196.167,156.5 195.5,156.5C 194.593,150.894 194.26,145.227 194.5,139.5C 196.167,139.5 197.833,139.5 199.5,139.5 Z"/></g>
<g><path style="opacity:0.996" fill="#3b5193" d="M 200.5,152.5 C 201.5,152.5 202.5,152.5 203.5,152.5C 203.5,153.833 203.5,155.167 203.5,156.5C 202.5,156.5 201.5,156.5 200.5,156.5C 200.5,155.167 200.5,153.833 200.5,152.5 Z"/></g>
<g><path style="opacity:0.996" fill="#374a90" d="M 200.5,146.5 C 201.5,146.5 202.5,146.5 203.5,146.5C 203.5,147.833 203.5,149.167 203.5,150.5C 202.5,150.5 201.5,150.5 200.5,150.5C 200.5,149.167 200.5,147.833 200.5,146.5 Z"/></g>
<g><path style="opacity:0.996" fill="#ac8101" d="M 209.5,145.5 C 210.833,145.5 212.167,145.5 213.5,145.5C 213.5,146.833 213.5,148.167 213.5,149.5C 212.167,149.5 210.833,149.5 209.5,149.5C 209.5,148.167 209.5,146.833 209.5,145.5 Z"/></g>
<g><path style="opacity:0.996" fill="#375393" d="M 204.5,147.5 C 205.5,147.5 206.5,147.5 207.5,147.5C 207.5,148.5 207.5,149.5 207.5,150.5C 206.5,150.5 205.5,150.5 204.5,150.5C 204.5,149.5 204.5,148.5 204.5,147.5 Z"/></g>
<g><path style="opacity:0.996" fill="#2e488d" d="M 195.5,147.5 C 196.5,147.5 197.5,147.5 198.5,147.5C 198.5,148.5 198.5,149.5 198.5,150.5C 197.5,150.5 196.5,150.5 195.5,150.5C 195.5,149.5 195.5,148.5 195.5,147.5 Z"/></g>
<g><path style="opacity:0.996" fill="#3a5492" d="M 200.5,141.5 C 201.5,141.5 202.5,141.5 203.5,141.5C 203.778,143.346 203.111,144.68 201.5,145.5C 200.571,144.311 200.238,142.978 200.5,141.5 Z"/></g>
<g><path style="opacity:0.996" fill="#c9594d" d="M 202.5,134.5 C 202.5,134.167 202.5,133.833 202.5,133.5C 206.167,133.5 209.833,133.5 213.5,133.5C 214.434,134.568 214.768,135.901 214.5,137.5C 218.311,137.596 218.311,138.262 214.5,139.5C 218.801,139.381 220.801,141.381 220.5,145.5C 218.738,145.643 217.071,145.309 215.5,144.5C 214.614,145.325 214.281,146.325 214.5,147.5C 221.507,147.954 221.841,148.787 215.5,150C 214.915,151.302 214.249,152.469 213.5,153.5C 213.5,152.167 213.5,150.833 213.5,149.5C 213.5,148.167 213.5,146.833 213.5,145.5C 213.5,143.5 213.5,141.5 213.5,139.5C 213.5,138.167 213.5,136.833 213.5,135.5C 210.038,134.518 206.371,134.185 202.5,134.5 Z"/></g>
<g><path style="opacity:0.996" fill="#d61f11" d="M 209.5,139.5 C 210.833,139.5 212.167,139.5 213.5,139.5C 213.5,141.5 213.5,143.5 213.5,145.5C 212.167,145.5 210.833,145.5 209.5,145.5C 209.5,143.5 209.5,141.5 209.5,139.5 Z"/></g>
<g><path style="opacity:0.996" fill="#a37e45" d="M 190.5,133.5 C 193.833,133.5 197.167,133.5 200.5,133.5C 201.167,133.5 201.833,133.5 202.5,133.5C 202.5,133.833 202.5,134.167 202.5,134.5C 203.301,136.042 203.634,137.708 203.5,139.5C 202.167,139.5 200.833,139.5 199.5,139.5C 199.286,137.856 199.62,136.356 200.5,135C 197.833,134.333 195.167,134.333 192.5,135C 193.38,136.356 193.714,137.856 193.5,139.5C 192.167,139.5 190.833,139.5 189.5,139.5C 189.5,141.5 189.5,143.5 189.5,145.5C 190.833,145.5 192.167,145.5 193.5,145.5C 193.5,146.833 193.5,148.167 193.5,149.5C 192.167,149.5 190.833,149.5 189.5,149.5C 189.5,151.167 189.5,152.833 189.5,154.5C 188.662,154.158 188.328,153.492 188.5,152.5C 187.345,150.175 185.345,149.008 182.5,149C 184.25,147.681 186.25,147.181 188.5,147.5C 187.897,142.381 188.564,137.715 190.5,133.5 Z"/></g>
<g><path style="opacity:0.996" fill="#ac8503" d="M 213.5,135.5 C 213.5,136.833 213.5,138.167 213.5,139.5C 212.167,139.5 210.833,139.5 209.5,139.5C 209.5,138.167 209.5,136.833 209.5,135.5C 210.833,135.5 212.167,135.5 213.5,135.5 Z"/></g>
<g><path style="opacity:0.996" fill="#d4241c" d="M 202.5,134.5 C 206.371,134.185 210.038,134.518 213.5,135.5C 212.167,135.5 210.833,135.5 209.5,135.5C 209.5,136.833 209.5,138.167 209.5,139.5C 207.5,139.5 205.5,139.5 203.5,139.5C 203.634,137.708 203.301,136.042 202.5,134.5 Z"/></g>
<g><path style="opacity:0.996" fill="#0f5b28" d="M 200.5,133.5 C 197.167,133.5 193.833,133.5 190.5,133.5C 193.1,130.54 196.433,129.206 200.5,129.5C 200.5,130.833 200.5,132.167 200.5,133.5 Z"/></g>
<g><path style="opacity:0.996" fill="#d32d14" d="M 213.5,133.5 C 209.833,133.5 206.167,133.5 202.5,133.5C 202.5,132.167 202.5,130.833 202.5,129.5C 206.673,129.667 210.34,131 213.5,133.5 Z"/></g>
<g><path style="opacity:0.996" fill="#fd180e" d="M 149.5,161.5 C 149.5,164.833 149.5,168.167 149.5,171.5C 138.722,177.727 128.056,184.227 117.5,191C 112.167,191.667 106.833,191.667 101.5,191C 117.385,180.941 133.385,171.108 149.5,161.5 Z"/></g>
<g><path style="opacity:0.996" fill="#145d2c" d="M 196.5,163.5 C 197.833,163.833 199.167,164.167 200.5,164.5C 200.5,165.5 200.5,166.5 200.5,167.5C 195.756,167.96 191.756,166.46 188.5,163C 191.082,163.255 193.748,163.422 196.5,163.5 Z"/></g>
<g><path style="opacity:0.996" fill="#fd170f" d="M 17.5,170.5 C 29.6079,177.057 41.6079,183.89 53.5,191C 49.1667,191.667 44.8333,191.667 40.5,191C 32.9257,186.576 25.2591,182.409 17.5,178.5C 17.5,175.833 17.5,173.167 17.5,170.5 Z"/></g>
<g><path style="opacity:0.996" fill="#20196b" d="M 17.5,184.5 C 21.9222,186.406 26.2556,188.572 30.5,191C 26.1794,191.499 21.8461,191.666 17.5,191.5C 17.5,189.167 17.5,186.833 17.5,184.5 Z"/></g>
<g><path style="opacity:0.996" fill="#0d095a" d="M 147.5,185.5 C 148.451,186.919 148.784,188.585 148.5,190.5C 145.5,190.5 142.5,190.5 139.5,190.5C 142.131,188.847 144.797,187.181 147.5,185.5 Z"/></g>
<g><path style="opacity:0.996" fill="#49547a" d="M 147.5,185.5 C 147.842,184.662 148.508,184.328 149.5,184.5C 149.5,186.833 149.5,189.167 149.5,191.5C 144.72,191.882 141.386,191.549 139.5,190.5C 142.5,190.5 145.5,190.5 148.5,190.5C 148.784,188.585 148.451,186.919 147.5,185.5 Z"/></g>
<g><path style="opacity:0.996" fill="#d85b55" d="M 201.5,170.5 C 201.833,170.5 202.167,170.5 202.5,170.5C 202.5,177.167 202.5,183.833 202.5,190.5C 221.674,190.17 240.674,190.503 259.5,191.5C 240.167,191.5 220.833,191.5 201.5,191.5C 201.5,184.5 201.5,177.5 201.5,170.5 Z"/></g>
<g><path style="opacity:0.996" fill="#fdfbfb" d="M 170.5,191.5 C 180.833,191.5 191.167,191.5 201.5,191.5C 220.833,191.5 240.167,191.5 259.5,191.5C 259.5,219.833 259.5,248.167 259.5,276.5C 229.907,277.492 200.24,277.825 170.5,277.5C 170.5,248.833 170.5,220.167 170.5,191.5 Z"/></g>
<g><path style="opacity:0.996" fill="#be062b" d="M 149.5,191.5 C 156.167,191.5 162.833,191.5 169.5,191.5C 169.5,220.5 169.5,249.5 169.5,278.5C 162.833,278.5 156.167,278.5 149.5,278.5C 149.5,273.167 149.5,267.833 149.5,262.5C 149.782,257.073 149.449,251.74 148.5,246.5C 148.5,243.833 148.5,241.167 148.5,238.5C 149.451,237.081 149.784,235.415 149.5,233.5C 149.5,231.167 149.5,228.833 149.5,226.5C 149.795,224.265 149.461,222.265 148.5,220.5C 148.5,212.833 148.5,205.167 148.5,197.5C 149.461,195.735 149.795,193.735 149.5,191.5 Z"/></g>
<g><path style="opacity:0.996" fill="#be0a2e" d="M 259.5,191.5 C 266.833,191.5 274.167,191.5 281.5,191.5C 281.667,213.836 281.5,236.169 281,258.5C 278.352,270.314 271.185,277.648 259.5,280.5C 259.5,279.167 259.5,277.833 259.5,276.5C 259.5,248.167 259.5,219.833 259.5,191.5 Z"/></g>
<g><path style="opacity:0.996" fill="#bf0d2c" d="M 214.5,198.5 C 217.029,202.224 219.029,206.224 220.5,210.5C 223.265,210.202 225.765,209.202 228,207.5C 227.252,214.01 226.085,220.51 224.5,227C 224.833,227.5 225.167,228 225.5,228.5C 228.818,225.683 231.985,222.683 235,219.5C 238.246,223.852 242.412,224.852 247.5,222.5C 247.536,225.821 246.869,228.988 245.5,232C 245.495,234.163 246.495,235.663 248.5,236.5C 243.821,241.178 238.821,245.511 233.5,249.5C 232.276,251.828 232.276,254.161 233.5,256.5C 232.5,256.833 231.5,257.167 230.5,257.5C 225.921,256.188 221.254,255.521 216.5,255.5C 216.5,261.5 216.5,267.5 216.5,273.5C 215.5,273.5 214.5,273.5 213.5,273.5C 213.5,267.5 213.5,261.5 213.5,255.5C 207.424,255.694 201.424,256.194 195.5,257C 197.036,255.401 197.536,253.567 197,251.5C 191.802,245.967 186.302,240.8 180.5,236C 183.193,235.973 184.527,234.64 184.5,232C 183.894,228.849 182.894,225.849 181.5,223C 182,222.833 182.5,222.667 183,222.5C 187.767,224.569 191.6,223.569 194.5,219.5C 197.14,222.806 200.14,225.806 203.5,228.5C 203.891,222.314 203.225,216.148 201.5,210C 201.833,209.5 202.167,209 202.5,208.5C 204.331,209.929 206.331,210.429 208.5,210C 210.64,206.219 212.64,202.385 214.5,198.5 Z"/></g>
<g><path style="opacity:0.996" fill="#f9f5f5" d="M 17.5,220.5 C 36.1667,220.5 54.8333,220.5 73.5,220.5C 73.5,240.833 73.5,261.167 73.5,281.5C 71.5,281.5 69.5,281.5 67.5,281.5C 67.8328,265.486 67.4994,249.486 66.5,233.5C 65.8933,233.624 65.56,233.957 65.5,234.5C 50.296,243.597 35.296,252.93 20.5,262.5C 20.1667,262.5 19.8333,262.5 19.5,262.5C 18.5418,260.698 17.8751,258.698 17.5,256.5C 33.6393,246.929 49.6393,237.095 65.5,227C 60.5,226.333 55.5,226.333 50.5,227C 39.7744,234.027 28.7744,240.527 17.5,246.5C 17.5,242.167 17.5,237.833 17.5,233.5C 21.3398,231.189 25.3398,229.023 29.5,227C 25.5138,226.501 21.5138,226.334 17.5,226.5C 17.5,224.5 17.5,222.5 17.5,220.5 Z"/></g>
<g><path style="opacity:0.996" fill="#fbf6f7" d="M 94.5,220.5 C 112.5,220.5 130.5,220.5 148.5,220.5C 149.461,222.265 149.795,224.265 149.5,226.5C 145.818,226.335 142.152,226.501 138.5,227C 142.194,229.178 145.861,231.345 149.5,233.5C 149.784,235.415 149.451,237.081 148.5,238.5C 141.725,234.943 135.058,231.11 128.5,227C 123.833,226.333 119.167,226.333 114.5,227C 125.725,233.776 137.058,240.276 148.5,246.5C 149.449,251.74 149.782,257.073 149.5,262.5C 149.167,262.5 148.833,262.5 148.5,262.5C 133.167,253.167 117.833,243.833 102.5,234.5C 102.44,233.957 102.107,233.624 101.5,233.5C 100.501,249.486 100.167,265.486 100.5,281.5C 98.5,281.5 96.5,281.5 94.5,281.5C 94.5,261.167 94.5,240.833 94.5,220.5 Z"/></g>
<g><path style="opacity:0.996" fill="#fe110a" d="M 17.5,256.5 C 17.5,253.167 17.5,249.833 17.5,246.5C 28.7744,240.527 39.7744,234.027 50.5,227C 55.5,226.333 60.5,226.333 65.5,227C 49.6393,237.095 33.6393,246.929 17.5,256.5 Z"/></g>
<g><path style="opacity:0.996" fill="#ff140c" d="M 148.5,238.5 C 148.5,241.167 148.5,243.833 148.5,246.5C 137.058,240.276 125.725,233.776 114.5,227C 119.167,226.333 123.833,226.333 128.5,227C 135.058,231.11 141.725,234.943 148.5,238.5 Z"/></g>
<g><path style="opacity:0.996" fill="#290b5c" d="M 149.5,226.5 C 149.5,228.833 149.5,231.167 149.5,233.5C 145.861,231.345 142.194,229.178 138.5,227C 142.152,226.501 145.818,226.335 149.5,226.5 Z"/></g>
<g><path style="opacity:0.996" fill="#0c0a5e" d="M 17.5,226.5 C 21.5138,226.334 25.5138,226.501 29.5,227C 25.3398,229.023 21.3398,231.189 17.5,233.5C 17.5,231.167 17.5,228.833 17.5,226.5 Z"/></g>
<g><path style="opacity:0.996" fill="#5c5e8a" d="M 65.5,234.5 C 65.56,233.957 65.8933,233.624 66.5,233.5C 67.4994,249.486 67.8328,265.486 67.5,281.5C 67.1667,281.5 66.8333,281.5 66.5,281.5C 66.5,280.167 66.5,278.833 66.5,277.5C 66.8293,262.99 66.4959,248.657 65.5,234.5 Z"/></g>
<g><path style="opacity:0.996" fill="#5e5f84" d="M 102.5,234.5 C 101.504,249.991 101.17,265.658 101.5,281.5C 101.167,281.5 100.833,281.5 100.5,281.5C 100.167,265.486 100.501,249.486 101.5,233.5C 102.107,233.624 102.44,233.957 102.5,234.5 Z"/></g>
<g><path style="opacity:0.996" fill="#0e0f57" d="M 65.5,234.5 C 66.4959,248.657 66.8293,262.99 66.5,277.5C 57.4938,277.666 48.4938,277.5 39.5,277C 30.5399,275.529 24.2066,270.696 20.5,262.5C 35.296,252.93 50.296,243.597 65.5,234.5 Z"/></g>
<g><path style="opacity:0.996" fill="#0e1054" d="M 102.5,234.5 C 117.833,243.833 133.167,253.167 148.5,262.5C 148.5,268.833 148.5,275.167 148.5,281.5C 132.833,281.5 117.167,281.5 101.5,281.5C 101.17,265.658 101.504,249.991 102.5,234.5 Z"/></g>
<g><path style="opacity:0.996" fill="#0c0f40" d="M 19.5,262.5 C 19.8333,262.5 20.1667,262.5 20.5,262.5C 24.2066,270.696 30.5399,275.529 39.5,277C 48.4938,277.5 57.4938,277.666 66.5,277.5C 66.5,278.833 66.5,280.167 66.5,281.5C 57.4938,281.666 48.4938,281.5 39.5,281C 29.4141,278.41 22.7474,272.244 19.5,262.5 Z"/></g>
<g><path style="opacity:0.996" fill="#d9382f" d="M 73.5,220.5 C 74.497,239.326 74.8303,258.326 74.5,277.5C 80.8333,277.5 87.1667,277.5 93.5,277.5C 93.1697,258.326 93.503,239.326 94.5,220.5C 94.5,240.833 94.5,261.167 94.5,281.5C 87.5,281.5 80.5,281.5 73.5,281.5C 73.5,261.167 73.5,240.833 73.5,220.5 Z"/></g>
<g><path style="opacity:0.996" fill="#a23746" d="M 169.5,191.5 C 169.833,191.5 170.167,191.5 170.5,191.5C 170.5,220.167 170.5,248.833 170.5,277.5C 170.5,278.833 170.5,280.167 170.5,281.5C 163.167,281.5 155.833,281.5 148.5,281.5C 148.5,275.167 148.5,268.833 148.5,262.5C 148.833,262.5 149.167,262.5 149.5,262.5C 149.5,267.833 149.5,273.167 149.5,278.5C 156.167,278.5 162.833,278.5 169.5,278.5C 169.5,249.5 169.5,220.5 169.5,191.5 Z"/></g>
<g><path style="opacity:0.996" fill="#bababa" d="M 259.5,276.5 C 259.5,277.833 259.5,279.167 259.5,280.5C 230.005,281.498 200.338,281.831 170.5,281.5C 170.5,280.167 170.5,278.833 170.5,277.5C 200.24,277.825 229.907,277.492 259.5,276.5 Z"/></g>
</svg>
